HIERARCHY
ROOT SpineBase
{
  OFFSET 0.000000 0.000000 0.000000
  CHANNELS 6 Xposition Yposition Zposition Zrotation Xrotation Yrotation
  JOINT SpineMid
  {
    OFFSET 0.000000 28.670052 0.000000
    CHANNELS 3 Zrotation Xrotation Yrotation
    JOINT SpineShoulder
    {
      OFFSET 0.178361 21.311765 -0.562841
      CHANNELS 3 Zrotation Xrotation Yrotation
      JOINT Neck
      {
        OFFSET 0.108616 7.065551 -0.443127
        CHANNELS 3 Zrotation Xrotation Yrotation
        JOINT Head
        {
          OFFSET -3.847888 12.893265 -0.928105
          CHANNELS 3 Zrotation Xrotation Yrotation
          End Site
          {
            OFFSET 0 0 0
          }
        }
      }
      JOINT ShoulderLeft
      {
        OFFSET -16.196067 -3.300739 6.449771
        CHANNELS 3 Zrotation Xrotation Yrotation
        JOINT ElbowLeft
        {
          OFFSET -2.275033 -27.570341 4.879663
          CHANNELS 3 Zrotation Xrotation Yrotation
          JOINT WristLeft
          {
            OFFSET 0.416651 -22.057096 -2.748557
            CHANNELS 3 Zrotation Xrotation Yrotation
            JOINT HandLeft
            {
              OFFSET 1.445647 -3.528600 -2.976413
              CHANNELS 3 Zrotation Xrotation Yrotation
              JOINT HandTipLeft
              {
                OFFSET 1.425289 -3.454697 -3.704713
                CHANNELS 3 Zrotation Xrotation Yrotation
                End Site
                {
                  OFFSET 0 0 0
                }
              }
              JOINT ThumbLeft
              {
                OFFSET -0.076925 3.140191 -0.235461
                CHANNELS 3 Zrotation Xrotation Yrotation
                End Site
                {
                  OFFSET 0 0 0
                }
              }
            }
          }
        }
      }
      JOINT ShoulderRight
      {
        OFFSET 14.129542 -2.288172 -6.969387
        CHANNELS 3 Zrotation Xrotation Yrotation
        JOINT ElbowRight
        {
          OFFSET 6.303794 -22.640223 0.657820
          CHANNELS 3 Zrotation Xrotation Yrotation
          JOINT WristRight
          {
            OFFSET -1.018121 -21.879508 -4.597006
            CHANNELS 3 Zrotation Xrotation Yrotation
            JOINT HandRight
            {
              OFFSET -1.936872 -6.130691 0.188654
              CHANNELS 3 Zrotation Xrotation Yrotation
              JOINT HandTipRight
              {
                OFFSET 0.270171 -7.334673 -1.013096
                CHANNELS 3 Zrotation Xrotation Yrotation
                End Site
                {
                  OFFSET 0 0 0
                }
              }
              JOINT ThumbRight
              {
                OFFSET -2.572962 -0.570571 -2.766471
                CHANNELS 3 Zrotation Xrotation Yrotation
                End Site
                {
                  OFFSET 0 0 0
                }
              }
            }
          }
        }
      }
    }
  }
  JOINT HipLeft
  {
    OFFSET -6.308864 0.384524 -0.979381
    CHANNELS 3 Zrotation Xrotation Yrotation
    JOINT KneeLeft
    {
      OFFSET 3.282631 -34.096227 6.739963
      CHANNELS 3 Zrotation Xrotation Yrotation
      JOINT AnkleLeft
      {
        OFFSET 4.300111 -29.722397 3.401710
        CHANNELS 3 Zrotation Xrotation Yrotation
        JOINT FootLeft
        {
          OFFSET 4.689405 -6.263020 -6.306915
          CHANNELS 3 Zrotation Xrotation Yrotation
          End Site
          {
            OFFSET 0 0 0
          }
        }
      }
    }
  }
  JOINT HipRight
  {
    OFFSET 7.044494 1.392094 -5.521195
    CHANNELS 3 Zrotation Xrotation Yrotation
    JOINT KneeRight
    {
      OFFSET 5.835308 -32.220599 4.504791
      CHANNELS 3 Zrotation Xrotation Yrotation
      JOINT AnkleRight
      {
        OFFSET 2.537008 -32.762674 5.043453
        CHANNELS 3 Zrotation Xrotation Yrotation
        JOINT FootRight
        {
          OFFSET -5.784641 -5.879540 -2.848887
          CHANNELS 3 Zrotation Xrotation Yrotation
          End Site
          {
            OFFSET 0 0 0
          }
        }
      }
    }
  }
}
MOTION
Frames: 15
Frame Time: 0.033333
-37.888002 72.003205 342.446505 3.965687 3.599684 20.154131 0.102599 -0.565564 -20.165506 0.198684 -0.311451 0.167973 11.192414 -6.562273 0.913547 0.000000 0.000000 0.000000 -9.295948 18.115465 -2.372862 -58.687175 72.460491 53.299399 56.093359 -39.259341 45.709095 -38.769639 -9.697820 8.930304 0.000000 0.000000 0.000000 0.000000 0.000000 0.000000 -3.817450 20.530796 6.172020 -76.713377 27.615042 12.975381 2.313086 -7.959855 -31.000380 -5.393191 -19.969518 6.283700 0.000000 0.000000 0.000000 0.000000 0.000000 0.000000 -3.241395 -1.209876 -19.922582 -2.237130 -3.020585 -0.789015 -4.413695 7.222760 10.017553 0.000000 0.000000 0.000000 -6.496659 -3.355324 -20.897497 -0.046991 1.318827 0.281437 17.966261 3.926938 -13.894985 0.000000 0.000000 0.000000
-37.897557 72.000514 342.419352 3.993705 3.626397 20.104449 0.107505 -0.572272 -20.116315 0.199981 -0.316278 0.169595 11.077211 -6.572287 0.903968 0.000000 0.000000 0.000000 -9.163125 17.620554 -2.347364 -58.483976 72.322270 52.830838 55.387767 -38.674625 44.980930 -37.981788 -9.070045 8.770791 0.000000 0.000000 0.000000 0.000000 0.000000 0.000000 -2.549535 19.832155 5.797068 -77.624212 27.380638 13.247104 4.027133 -5.819867 -29.291802 -6.133988 -19.758214 7.247483 0.000000 0.000000 0.000000 0.000000 0.000000 0.000000 -3.300026 -1.282702 -19.882019 -2.202964 -2.902291 -0.767393 -5.475221 4.486316 9.279897 0.000000 0.000000 0.000000 -6.520017 -3.438495 -20.857623 -0.494791 1.325454 0.231565 19.310960 4.284551 -14.908197 0.000000 0.000000 0.000000
-37.902852 71.991254 342.422776 4.017425 3.657699 20.129243 0.117008 -0.561470 -20.142646 0.197758 -0.313993 0.170171 11.005693 -6.595131 0.910123 0.000000 0.000000 0.000000 -9.147071 17.051781 -2.327163 -58.127255 72.245625 52.443411 53.654585 -38.456771 43.862146 -31.510006 -14.036889 4.211307 0.000000 0.000000 0.000000 0.000000 0.000000 0.000000 -2.053925 19.423177 5.628226 -77.566239 27.295386 13.292712 4.037727 -7.222780 -29.325410 -7.790322 -16.781630 9.130102 0.000000 0.000000 0.000000 0.000000 0.000000 0.000000 -3.365108 -1.323274 -19.917486 -2.155700 -2.806071 -0.745303 -1.881282 5.329573 5.894633 0.000000 0.000000 0.000000 -6.546951 -3.498343 -20.889901 -0.742141 1.335904 0.205504 20.068579 4.581028 -15.617342 0.000000 0.000000 0.000000
-37.907564 71.984071 342.435369 4.025767 3.688985 20.048447 0.131023 -0.534483 -20.064212 0.193247 -0.307446 0.169520 10.986443 -6.721454 0.914576 0.000000 0.000000 0.000000 -9.081096 16.736814 -2.318983 -57.676858 72.095179 51.869333 51.595679 -36.532270 42.575362 -27.068900 -14.203607 2.040614 0.000000 0.000000 0.000000 0.000000 0.000000 0.000000 -2.280129 19.449935 5.682641 -76.707556 27.128373 12.855798 4.012190 -9.649513 -29.629210 -10.577300 -8.902954 15.217817 0.000000 0.000000 0.000000 0.000000 0.000000 0.000000 -3.372309 -1.358858 -19.836568 -2.179643 -2.830202 -0.753190 3.461151 6.899049 1.336202 0.000000 0.000000 0.000000 -6.555498 -3.564516 -20.815851 -0.765385 1.350315 0.206930 20.308194 4.737243 -15.979076 0.000000 0.000000 0.000000
-37.907842 71.975440 342.458738 4.024553 3.699019 19.911797 0.138121 -0.506154 -19.929445 0.180873 -0.309279 0.168044 11.031747 -6.809439 0.920884 0.000000 0.000000 0.000000 -9.101962 16.597014 -2.318394 -57.137135 72.003302 51.396972 49.958528 -36.175588 41.747587 -25.381300 -18.386690 -0.199558 0.000000 0.000000 0.000000 0.000000 0.000000 0.000000 -3.178157 20.020159 5.972951 -75.400507 27.356965 12.337683 4.604693 -12.665585 -29.975782 -6.616811 1.656765 23.135175 0.000000 0.000000 0.000000 0.000000 0.000000 0.000000 -3.336215 -1.352609 -19.691658 -2.270850 -2.847102 -0.770015 10.733337 8.791802 -4.540845 0.000000 0.000000 0.000000 -6.539084 -3.565488 -20.675107 -0.626317 1.399360 0.225897 20.958072 4.352951 -16.220866 0.000000 0.000000 0.000000
-37.907561 71.969763 342.501823 4.014592 3.688897 19.810347 0.141892 -0.472035 -19.829528 0.162254 -0.315122 0.165746 11.104187 -6.925278 0.917951 0.000000 0.000000 0.000000 -9.105736 16.734450 -2.326815 -56.452997 71.846662 50.744206 49.679958 -36.643454 41.622715 -26.331114 -23.340633 -1.828082 0.000000 0.000000 0.000000 0.000000 0.000000 0.000000 -4.434986 20.888513 6.411430 -73.899241 27.798474 11.795962 4.352544 -16.548442 -31.088798 -3.448377 5.556197 24.198870 0.000000 0.000000 0.000000 0.000000 0.000000 0.000000 -3.253008 -1.286987 -19.571883 -2.421011 -2.968221 -0.811418 18.399772 10.491664 -10.492336 0.000000 0.000000 0.000000 -6.491880 -3.555704 -20.563916 -0.330572 1.581159 0.276378 18.967048 3.633753 -14.293583 0.000000 0.000000 0.000000
-37.904822 71.964360 342.538219 3.998153 3.691102 19.733250 0.129886 -0.454925 -19.754090 0.143544 -0.327710 0.163241 11.194906 -7.137315 0.895693 0.000000 0.000000 0.000000 -9.005408 17.526923 -2.359094 -55.025529 71.300323 49.036920 50.370815 -36.340875 41.939062 -26.554299 -22.452528 -1.373305 0.000000 0.000000 0.000000 0.000000 0.000000 0.000000 -5.584580 21.713286 6.843628 -71.910209 28.612727 11.367982 3.137699 -18.475503 -32.253959 -1.601535 10.810204 27.241265 0.000000 0.000000 0.000000 0.000000 0.000000 0.000000 -3.149352 -1.222808 -19.471984 -2.546605 -3.128052 -0.855757 19.862159 11.051522 -11.446464 0.000000 0.000000 0.000000 -6.429935 -3.563728 -20.475532 0.821015 1.851688 0.437318 15.834932 2.430585 -11.922766 0.000000 0.000000 0.000000
-37.900278 71.958548 342.571761 3.967814 3.685172 19.694814 0.109004 -0.447438 -19.716737 0.121385 -0.347746 0.160170 11.361018 -7.341696 0.874076 0.000000 0.000000 0.000000 -9.207761 17.597131 -2.364900 -54.025068 71.196741 48.465715 50.599843 -35.140385 41.762900 -22.269291 -18.600406 -1.020433 0.000000 0.000000 0.000000 0.000000 0.000000 0.000000 -7.032115 22.677006 7.389821 -69.649780 29.084803 10.650848 1.783195 -19.496335 -33.333121 1.962386 8.529794 24.692303 0.000000 0.000000 0.000000 0.000000 0.000000 0.000000 -3.038306 -1.167394 -19.411672 -2.623387 -3.281052 -0.891997 16.567614 10.376543 -8.924184 0.000000 0.000000 0.000000 -6.352151 -3.575597 -20.425318 0.778385 1.838553 0.429771 15.848689 2.082954 -11.509128 0.000000 0.000000 0.000000
-37.895177 71.959250 342.596166 3.943198 3.679994 19.674136 0.092918 -0.442105 -19.696836 0.104392 -0.364509 0.157829 11.465245 -7.538552 0.846790 0.000000 0.000000 0.000000 -9.658497 17.352057 -2.369835 -52.804562 71.227926 48.112459 49.914430 -33.521872 41.041033 -14.922529 -10.467886 -0.940921 0.000000 0.000000 0.000000 0.000000 0.000000 0.000000 -8.725916 23.681534 8.023288 -67.120121 29.363226 9.787049 0.557820 -18.515677 -33.938159 1.824805 2.024821 21.093231 0.000000 0.000000 0.000000 0.000000 0.000000 0.000000 -2.941082 -1.104323 -19.371348 -2.648076 -3.434983 -0.919662 16.724213 10.516766 -9.053196 0.000000 0.000000 0.000000 -6.291814 -3.601096 -20.397863 0.739746 1.845071 0.426153 15.564007 1.761174 -10.919675 0.000000 0.000000 0.000000
-37.880477 71.964196 342.608905 3.931391 3.676280 19.697707 0.076835 -0.436000 -19.721310 0.092362 -0.374872 0.156107 11.533251 -7.749881 0.816465 0.000000 0.000000 0.000000 -10.051702 17.087446 -2.375316 -52.066148 71.368548 48.143203 49.912264 -32.433692 40.708413 -6.945388 -1.298866 -1.952072 0.000000 0.000000 0.000000 0.000000 0.000000 0.000000 -10.322275 24.505718 8.611259 -64.806581 29.616500 9.119703 -1.240581 -18.504170 -35.112723 0.801433 -1.971809 18.645853 0.000000 0.000000 0.000000 0.000000 0.000000 0.000000 -2.893024 -1.043057 -19.384835 -2.581597 -3.515732 -0.920253 14.652646 10.439655 -7.289737 0.000000 0.000000 0.000000 -6.267132 -3.626047 -20.420880 0.717430 1.865574 0.427005 15.055455 1.615164 -10.395356 0.000000 0.000000 0.000000
-37.864826 71.970107 342.634175 3.928749 3.660652 19.782773 0.062596 -0.429247 -19.806752 0.084932 -0.381077 0.155105 11.574900 -7.948340 0.782664 0.000000 0.000000 0.000000 -10.184595 16.989405 -2.374263 -52.290721 71.578693 48.676637 49.531108 -31.709251 40.532946 7.999943 1.064616 -7.000869 0.000000 0.000000 0.000000 0.000000 0.000000 0.000000 -11.570778 25.140178 9.085626 -62.983750 29.658660 8.517778 -3.087795 -17.677319 -36.114600 0.956581 -10.437100 12.608220 0.000000 0.000000 0.000000 0.000000 0.000000 0.000000 -2.903307 -0.955556 -19.472576 -2.438170 -3.588857 -0.904544 15.055585 10.821709 -7.545985 0.000000 0.000000 0.000000 -6.243468 -3.628693 -20.502190 -0.049881 2.316056 0.374291 15.556681 1.165499 -9.992549 0.000000 0.000000 0.000000
-37.850932 71.981571 342.635099 3.939330 3.651495 19.876627 0.050474 -0.426748 -19.900915 0.083232 -0.383193 0.155078 11.562534 -8.107521 0.750857 0.000000 0.000000 0.000000 -10.270083 16.875491 -2.372388 -53.123613 71.929815 49.740233 49.082274 -30.762469 40.438171 16.507689 -1.448082 -9.709670 0.000000 0.000000 0.000000 0.000000 0.000000 0.000000 -12.440314 25.523803 9.401172 -61.769437 29.613747 8.124278 -4.631724 -16.781703 -36.895525 0.384355 -12.079475 11.576642 0.000000 0.000000 0.000000 0.000000 0.000000 0.000000 -2.905405 -0.928983 -19.564779 -2.351504 -3.546297 -0.883882 13.838451 10.815489 -6.472350 0.000000 0.000000 0.000000 -6.252089 -3.635338 -20.597871 -0.151888 2.438948 0.375550 15.111898 1.136846 -9.689326 0.000000 0.000000 0.000000
-37.834601 71.994738 342.629252 3.959443 3.647604 19.932218 0.039643 -0.422864 -19.957085 0.083704 -0.380960 0.155386 11.554258 -8.215126 0.733070 0.000000 0.000000 0.000000 -10.280955 16.947489 -2.375687 -54.299110 72.277029 50.987218 49.354430 -30.653642 40.816383 18.653963 -8.558158 -9.808664 0.000000 0.000000 0.000000 0.000000 0.000000 0.000000 -12.930767 25.536026 9.501430 -61.188339 29.686601 8.193747 -6.012514 -16.399069 -37.715430 2.247765 -14.128728 10.017013 0.000000 0.000000 0.000000 0.000000 0.000000 0.000000 -2.963548 -0.935868 -19.630901 -2.250468 -3.415036 -0.847186 12.671623 10.740519 -5.426185 0.000000 0.000000 0.000000 -6.276683 -3.652023 -20.658634 -0.153770 2.499240 0.383857 14.161636 1.292032 -9.292351 0.000000 0.000000 0.000000
-37.815295 72.010154 342.617388 3.980367 3.666992 20.011319 0.034114 -0.417239 -20.037602 0.082514 -0.373673 0.155317 11.568781 -8.361232 0.726073 0.000000 0.000000 0.000000 -10.066933 17.184961 -2.379012 -55.720893 72.482389 52.059293 50.187467 -31.343073 41.578227 14.000853 -12.409986 -8.498142 0.000000 0.000000 0.000000 0.000000 0.000000 0.000000 -13.391466 25.224832 9.474487 -60.978205 29.572095 8.526931 -6.761486 -16.946915 -38.330425 2.237737 -10.438202 12.631897 0.000000 0.000000 0.000000 0.000000 0.000000 0.000000 -3.038885 -0.953800 -19.723604 -2.206028 -3.318103 -0.824131 11.767856 10.507851 -4.667730 0.000000 0.000000 0.000000 -6.329559 -3.688420 -20.749711 -0.041234 2.512225 0.402054 12.802887 1.570088 -8.810996 0.000000 0.000000 0.000000
-37.794103 72.021429 342.594653 4.010715 3.708495 20.097282 0.033375 -0.407262 -20.125997 0.088836 -0.367370 0.156332 11.556124 -8.501496 0.727865 0.000000 0.000000 0.000000 -9.735249 17.378205 -2.380832 -56.742000 72.475168 52.462653 51.753618 -31.487281 42.438787 4.494536 -16.692448 -6.477564 0.000000 0.000000 0.000000 0.000000 0.000000 0.000000 -12.145990 24.523183 8.965104 -62.411923 29.726894 9.156642 -5.560094 -16.981558 -37.470046 1.376057 -6.276429 16.026984 0.000000 0.000000 0.000000 0.000000 0.000000 0.000000 -3.145486 -1.014319 -19.828511 -2.243232 -3.111657 -0.798125 11.530765 10.335255 -4.360769 0.000000 0.000000 0.000000 -6.415838 -3.722775 -20.851744 0.702951 2.008282 0.450308 10.485416 2.545425 -8.494262 0.000000 0.000000 0.000000
